<?xml version="1.0" standalone="no"?>
<!DOCTYPE svg PUBLIC "-//W3C//DTD SVG 20010904//EN"
 "http://www.w3.org/TR/2001/REC-SVG-20010904/DTD/svg10.dtd">
<svg version="1.0" xmlns="http://www.w3.org/2000/svg"
 width="1088.000000pt" height="1088.000000pt" viewBox="0 0 1088.000000 1088.000000"
 preserveAspectRatio="xMidYMid meet">
<metadata>
Created by potrace 1.14, written by Peter Selinger 2001-2017
</metadata>
<g transform="translate(0.000000,1088.000000) scale(0.100000,-0.100000)"
fill="#000000" stroke="none">
<path d="M5388 9461 c-44 -14 -83 -42 -103 -71 -11 -16 -21 -27 -23 -25 -2 2
-16 -10 -31 -28 -29 -35 -85 -98 -146 -163 -22 -23 -60 -66 -85 -94 -25 -28
-65 -73 -90 -99 -25 -27 -76 -83 -115 -126 -38 -42 -90 -99 -115 -125 -25 -27
-70 -77 -101 -112 -31 -34 -76 -84 -100 -110 -24 -25 -75 -81 -114 -123 -38
-43 -81 -90 -95 -105 -142 -156 -200 -219 -230 -249 -19 -20 -35 -38 -35 -41
0 -3 -25 -31 -55 -62 -30 -31 -77 -82 -105 -113 -27 -30 -76 -84 -107 -118
-32 -34 -58 -65 -58 -69 0 -5 -7 -8 -15 -8 -8 0 -15 -5 -15 -10 0 -6 -21 -33
-47 -61 -27 -29 -59 -64 -73 -79 -144 -157 -189 -206 -212 -230 -15 -15 -25
-30 -22 -33 3 -3 -4 -8 -15 -12 -12 -3 -21 -10 -21 -15 0 -5 -19 -29 -42 -53
-24 -25 -74 -80 -113 -122 -119 -132 -182 -195 -188 -188 -4 3 -7 1 -7 -5 0
-10 -83 -29 -103 -24 -4 1 -15 4 -25 6 -59 11 -86 33 -212 175 -30 33 -75 83
-100 110 -25 26 -74 81 -110 121 -36 39 -81 89 -100 110 -34 37 -147 160 -245
269 -27 30 -67 72 -87 94 -21 22 -38 41 -38 43 0 2 -18 22 -40 45 -22 23 -40
46 -40 50 0 4 -9 11 -21 14 -11 4 -18 9 -16 12 3 2 -12 22 -34 44 -21 21 -37
39 -35 39 2 0 -17 22 -43 48 -46 47 -180 194 -221 242 -12 14 -58 65 -103 114
-45 49 -93 101 -107 116 -87 97 -171 190 -212 231 -25 27 -45 49 -43 49 2 0
-13 17 -33 39 -20 21 -71 76 -112 122 -41 45 -91 100 -110 120 -19 21 -60 65
-90 99 -30 34 -73 81 -95 105 -22 23 -64 69 -94 103 -65 72 -122 104 -183 101
-57 -3 -127 -41 -158 -87 -22 -32 -25 -47 -24 -117 1 -78 9 -174 20 -245 3
-19 7 -62 10 -95 3 -33 7 -73 10 -90 8 -65 17 -162 18 -202 1 -24 4 -43 7 -43
4 0 7 -21 9 -47 1 -27 3 -63 3 -80 1 -18 4 -33 7 -33 3 0 6 -17 7 -38 2 -44
11 -147 13 -147 2 0 9 -55 14 -126 3 -39 8 -80 10 -92 3 -12 8 -56 12 -97 7
-90 11 -125 14 -125 1 0 3 -25 5 -55 1 -30 4 -55 5 -55 2 0 3 -4 15 -125 4
-41 8 -86 10 -100 2 -14 6 -52 9 -84 3 -33 8 -71 10 -85 3 -14 7 -57 11 -96 3
-38 8 -88 11 -110 3 -22 8 -60 10 -85 2 -25 7 -65 9 -90 3 -25 7 -72 10 -105
2 -33 5 -60 6 -60 4 0 18 -125 22 -197 1 -21 4 -38 7 -38 3 0 6 -19 6 -43 2
-39 8 -105 20 -202 2 -22 6 -58 8 -80 8 -81 15 -125 22 -137 5 -7 3 -8 -6 -3
-8 5 -11 4 -7 -2 8 -12 16 -65 22 -138 5 -59 15 -149 20 -185 3 -23 7 -56 19
-180 20 -189 22 -205 30 -219 4 -5 2 -12 -4 -16 -6 -4 -7 -12 -3 -18 8 -13 11
-31 17 -117 3 -30 5 -55 6 -55 2 0 9 -56 15 -115 2 -30 7 -80 10 -110 3 -30 8
-73 10 -95 2 -22 4 -40 5 -40 3 0 7 -37 14 -125 3 -41 8 -86 11 -99 2 -13 7
-52 10 -86 2 -35 7 -78 9 -96 6 -43 16 -130 31 -274 3 -22 6 -53 8 -70 3 -16
8 -68 12 -115 4 -47 9 -88 10 -91 2 -3 5 -31 6 -62 1 -31 5 -57 8 -57 3 0 6
-19 7 -43 0 -23 4 -71 8 -107 5 -36 10 -79 11 -97 7 -62 80 -148 134 -156 11
-2 23 -6 27 -9 3 -4 17 -3 30 2 13 5 25 6 28 2 6 -9 198 -8 214 2 7 4 12 4 12
-1 0 -10 222 -9 238 0 6 4 13 4 15 0 6 -10 199 -9 215 1 7 4 12 4 12 -1 0 -10
222 -9 238 0 6 4 13 4 15 0 6 -10 199 -9 215 1 7 4 12 4 12 -1 0 -10 222 -9
238 0 6 4 13 4 15 0 6 -10 359 -9 375 1 7 4 12 4 12 -1 0 -10 222 -9 238 0 6
4 13 4 15 0 6 -10 199 -9 215 1 7 4 12 4 12 -1 0 -10 222 -9 238 0 6 4 13 4
15 0 6 -10 199 -9 215 1 7 4 12 4 12 -1 0 -10 222 -9 238 0 6 4 13 4 15 0 6
-10 199 -9 215 1 7 4 12 4 12 -1 0 -10 222 -9 238 0 6 4 13 4 15 0 6 -10 199
-9 215 1 7 4 12 4 12 -1 0 -10 222 -9 238 0 6 4 13 4 15 0 6 -10 2759 -9 2775
1 7 4 12 4 12 -1 0 -10 222 -9 238 0 6 4 13 4 15 0 6 -10 199 -9 215 1 7 4 12
4 12 -1 0 -10 222 -9 238 0 6 4 13 4 15 0 6 -10 199 -9 215 1 7 4 12 4 12 -1
0 -10 222 -9 238 0 6 4 13 4 15 0 6 -10 199 -9 215 1 7 4 12 4 12 -1 0 -10
222 -9 238 0 6 4 13 4 15 0 6 -10 199 -9 215 1 7 4 12 4 12 -1 0 -10 222 -9
238 0 6 4 13 3 16 -1 8 -14 149 -4 174 11 6 5 12 5 12 2 0 -6 16 6 61 48 16
15 27 27 23 27 -3 0 -1 6 5 13 6 8 13 24 15 38 3 13 5 24 6 24 2 0 12 103 13
133 1 12 3 22 7 22 3 0 5 21 6 48 0 26 3 72 7 102 4 30 9 80 12 110 3 30 8 73
11 95 6 50 10 93 18 170 3 33 8 74 10 90 2 17 7 57 10 90 6 57 9 85 21 188 2
23 7 65 10 92 3 28 8 73 11 100 9 76 16 143 28 270 3 33 8 76 11 95 10 75 15
117 20 170 3 30 8 79 11 109 4 30 8 71 9 90 2 20 4 36 5 36 1 0 8 69 15 145 1
19 3 35 4 35 1 0 4 20 6 45 2 25 6 65 9 90 2 25 8 72 11 105 6 59 10 89 20
170 3 23 7 63 10 90 10 114 15 162 20 195 3 19 8 58 11 85 2 28 6 68 9 90 9
81 18 171 19 193 0 12 2 22 6 22 3 0 5 17 6 38 0 20 4 66 7 102 4 36 9 85 12
110 13 123 26 240 31 280 4 25 7 63 9 85 2 22 6 58 9 80 3 22 8 69 12 105 9
89 12 115 14 115 0 0 3 25 5 55 3 30 7 75 10 100 3 25 7 63 9 85 2 22 7 65 10
95 3 30 8 75 11 100 3 25 7 63 10 85 2 22 7 67 10 100 3 33 8 76 11 95 5 37
10 79 19 175 3 33 7 74 10 90 3 17 8 57 11 90 3 33 8 76 10 95 2 19 7 58 9 85
5 50 9 87 20 180 21 189 22 237 3 275 -17 34 -69 90 -85 90 -7 0 -13 4 -13 8
0 5 -6 9 -12 10 -139 16 -155 7 -308 -167 -30 -35 -66 -75 -80 -90 -14 -14
-50 -55 -80 -90 -30 -34 -67 -77 -82 -94 -16 -17 -28 -35 -28 -39 0 -5 -4 -6
-10 -3 -5 3 -10 2 -10 -3 0 -8 -54 -72 -121 -144 -15 -16 -44 -49 -65 -75 -22
-25 -56 -63 -76 -85 -21 -21 -38 -41 -38 -43 0 -2 -16 -21 -36 -42 -20 -21
-55 -60 -78 -86 -42 -50 -55 -65 -135 -153 -25 -28 -66 -74 -91 -103 -25 -29
-63 -72 -85 -96 -50 -55 -74 -83 -150 -169 -33 -37 -69 -78 -80 -91 -79 -88
-143 -161 -164 -187 -14 -17 -39 -45 -56 -62 -16 -18 -55 -61 -85 -96 -30 -34
-67 -76 -82 -92 -16 -16 -28 -30 -28 -32 0 -3 -15 -20 -32 -39 -54 -56 -141
-153 -173 -193 -16 -20 -49 -56 -72 -81 -24 -24 -43 -47 -43 -49 0 -3 -15 -20
-32 -38 -18 -19 -58 -62 -88 -96 -30 -35 -66 -74 -80 -87 -27 -26 -80 -57 -80
-47 0 4 -6 2 -12 -3 -18 -13 -91 -7 -125 11 -31 16 -81 62 -128 118 -51 60
-148 169 -182 204 -18 19 -31 34 -28 34 2 0 -14 19 -35 42 -22 23 -40 45 -40
49 0 4 -9 11 -20 14 -11 3 -20 12 -20 18 0 7 -8 20 -17 28 -10 9 -45 47 -78
84 -33 38 -69 79 -80 91 -11 12 -36 41 -56 65 -21 24 -52 60 -70 80 -19 20
-56 61 -84 93 -27 31 -69 78 -92 102 -24 25 -43 47 -43 49 0 4 -18 25 -104
118 -25 26 -43 47 -42 47 3 0 -68 80 -131 147 -24 25 -43 47 -43 49 0 2 -8 12
-17 22 -10 10 -45 49 -78 87 -33 37 -71 80 -85 96 -25 27 -95 106 -167 188
-21 24 -49 56 -63 71 -14 15 -50 55 -80 90 -30 35 -76 86 -102 113 -26 26 -47
50 -47 53 1 3 -31 40 -70 82 -39 41 -71 77 -71 78 0 4 -65 77 -107 121 -18 19
-33 36 -33 39 0 2 -15 20 -32 38 -18 18 -64 69 -103 113 -38 44 -85 88 -104
97 -41 20 -107 28 -143 17z"/>
<path d="M905 2628 c-36 -19 -82 -62 -85 -80 0 -4 -7 -19 -14 -33 -7 -13 -12
-42 -10 -62 5 -71 17 -194 30 -303 2 -19 6 -63 9 -98 3 -34 7 -75 10 -90 3
-15 7 -54 10 -87 11 -136 16 -160 40 -205 22 -43 49 -67 95 -87 31 -13 577
-14 4451 -14 2429 0 4432 3 4452 6 20 4 37 10 37 14 0 3 14 12 30 19 17 8 28
18 24 23 -3 5 0 9 6 9 6 0 18 17 26 37 19 44 21 53 29 135 7 75 14 138 20 193
3 22 8 67 10 100 6 63 12 121 21 195 15 125 13 203 -7 242 -20 39 -95 102
-110 92 -5 -3 -9 -1 -9 5 0 6 -1559 9 -4512 9 l-4513 0 -40 -20z"/>
</g>
</svg>
