<svg width="228" height="166" viewBox="0 0 228 166" fill="none" xmlns="http://www.w3.org/2000/svg">
<path d="M195.959 71.0738C182.334 68.136 169.398 62.9054 157.451 55.4707C144.084 47.1441 132.606 36.5145 123.4 23.8358C113.85 10.7166 107.12 -4.04095 103.403 -19.9799C99.6856 -35.9188 99.1977 -52.1137 101.965 -68.1194C104.635 -83.5602 110.205 -98.1804 118.531 -111.547C126.858 -124.914 137.487 -136.392 150.166 -145.597C163.285 -155.147 178.043 -161.878 193.982 -165.595C209.921 -169.312 226.116 -169.8 242.121 -167.032C257.562 -164.362 272.182 -158.793 285.549 -150.466C298.916 -142.14 310.389 -131.487 319.599 -118.831C329.149 -105.712 335.88 -90.9547 339.597 -75.0158C343.314 -59.0768 343.802 -42.882 341.034 -26.8762C338.364 -11.4355 332.795 3.18479 324.468 16.5514C316.142 29.9179 305.489 41.3913 292.833 50.6017C279.714 60.1516 264.957 66.8823 249.018 70.5993C233.079 74.3164 216.884 74.8042 200.878 72.0368C199.253 71.7597 197.592 71.4259 195.959 71.0738ZM246.954 -165.893C229.713 -169.61 211.716 -169.486 194.035 -165.388C129.044 -150.225 88.4927 -85.0142 103.633 -20.0279C110.979 11.4648 130.118 38.2 157.589 55.2809C185.06 72.3618 217.5 77.7205 248.993 70.3742C280.486 63.028 307.221 43.8889 324.302 16.4178C341.378 -11.0299 346.741 -43.4933 339.395 -74.986C332.049 -106.479 312.91 -133.214 285.439 -150.295C273.398 -157.75 260.416 -162.99 246.954 -165.893Z" fill="url(#paint0_linear_5824_17191)"/>
<path d="M197.378 64.3702C192.712 63.3642 188.134 62.0598 183.594 60.4705C169.638 55.557 156.919 48.078 145.779 38.2539C134.645 28.4066 125.64 16.7233 119.051 3.46115C112.216 -10.2447 108.27 -25.0121 107.321 -40.4274C106.373 -55.8428 108.467 -70.9925 113.533 -85.4284C118.446 -99.3844 125.925 -112.104 135.749 -123.243C145.597 -134.377 157.28 -143.382 170.542 -149.971C184.248 -156.807 199.015 -160.752 214.431 -161.701C229.846 -162.65 244.996 -160.555 259.432 -155.49C273.388 -150.576 286.107 -143.097 297.246 -133.273C308.381 -123.426 317.386 -111.742 323.975 -98.4803C330.81 -84.7744 334.755 -70.007 335.704 -54.5917C336.653 -39.1763 334.559 -24.0266 329.493 -9.59068C324.579 4.36532 317.1 17.0845 307.276 28.2238C297.452 39.3632 285.746 48.3631 272.484 54.9523C258.778 61.7877 244.01 65.7329 228.595 66.6819C218.024 67.3569 207.573 66.5685 197.378 64.3702ZM245.761 -159.121C235.612 -161.309 225.091 -162.113 214.45 -161.453C151.622 -157.567 103.656 -103.257 107.565 -40.4238C109.45 -9.98652 123.09 17.9069 145.936 38.0924C168.806 58.283 198.151 68.3702 228.594 66.4618C259.031 64.5768 286.924 50.9367 307.11 28.0903C327.3 5.22056 337.388 -24.1247 335.479 -54.567C333.594 -85.0042 319.954 -112.898 297.108 -133.083C282.235 -146.202 264.612 -155.056 245.761 -159.121Z" fill="url(#paint1_linear_5824_17191)"/>
<path d="M198.763 58.0567C186.631 55.4409 175.11 50.7839 164.499 44.1744C152.593 36.7731 142.403 27.3003 134.193 16.0081C125.698 4.33715 119.715 -8.79422 116.403 -22.9857C113.09 -37.1772 112.66 -51.6017 115.12 -65.8425C117.498 -79.5884 122.454 -92.6075 129.855 -104.513C137.256 -116.419 146.729 -126.609 158.021 -134.819C169.692 -143.314 182.824 -149.297 197.015 -152.609C211.206 -155.922 225.631 -156.352 239.872 -153.892C253.618 -151.514 266.637 -146.558 278.543 -139.157C290.449 -131.756 300.638 -122.283 308.848 -110.991C317.343 -99.3197 323.326 -86.1883 326.639 -71.9969C329.951 -57.8054 330.381 -43.3809 327.921 -29.1401C325.543 -15.3942 320.588 -2.37507 313.186 9.53078C305.785 21.4366 296.312 31.6262 285.02 39.8366C273.349 48.3315 260.218 54.3141 246.026 57.6266C231.835 60.9392 217.41 61.3693 203.169 58.9091C201.684 58.6622 200.233 58.3737 198.763 58.0567ZM244.163 -152.844C228.835 -156.149 212.819 -156.038 197.086 -152.374C169.047 -145.87 145.25 -128.808 130.045 -104.375C114.84 -79.9418 110.077 -51.0599 116.609 -23.0388C123.142 4.98233 140.181 28.7744 164.614 43.9795C189.047 59.1846 217.929 63.947 245.95 57.4148C273.971 50.8826 297.763 33.8434 312.968 9.41049C328.173 -15.0225 332.936 -43.9044 326.403 -71.9255C319.871 -99.9466 302.832 -123.739 278.399 -138.944C267.699 -145.597 256.131 -150.264 244.163 -152.844Z" fill="url(#paint2_linear_5824_17191)"/>
<path d="M200.03 52.0777C195.877 51.1823 191.78 50.0302 187.766 48.6032C175.351 44.2418 164.019 37.5746 154.114 28.8224C144.208 20.0701 136.2 9.65157 130.319 -2.13944C124.234 -14.3408 120.718 -27.4773 119.87 -41.2106C119.023 -54.9439 120.877 -68.412 125.409 -81.2783C129.77 -93.6931 136.437 -105.025 145.19 -114.93C153.942 -124.836 164.36 -132.844 176.151 -138.725C188.353 -144.81 201.489 -148.326 215.223 -149.174C228.956 -150.021 242.424 -148.167 255.29 -143.635C267.705 -139.274 279.037 -132.607 288.942 -123.854C298.848 -115.102 306.856 -104.684 312.737 -92.8926C318.822 -80.6913 322.338 -67.5547 323.186 -53.8214C324.033 -40.0881 322.179 -26.62 317.647 -13.7537C313.286 -1.33889 306.619 9.99279 297.866 19.8983C289.114 29.8038 278.696 37.8118 266.905 43.6928C254.703 49.7783 241.567 53.2939 227.833 54.1416C218.401 54.7447 209.106 54.0345 200.03 52.0777ZM242.896 -146.845C234.007 -148.761 224.716 -149.495 215.214 -148.907C188.118 -147.229 163.308 -135.097 145.346 -114.75C127.384 -94.4029 118.408 -68.2851 120.09 -41.212C121.768 -14.1155 133.9 10.6938 154.247 28.6558C174.594 46.6179 200.712 55.5941 227.785 53.9115C283.712 50.4419 326.379 2.14327 322.909 -53.7834C320.051 -100.203 286.268 -137.493 242.896 -146.845Z" fill="url(#paint3_linear_5824_17191)"/>
<path d="M201.265 46.4597C190.463 44.1306 180.227 39.9703 170.751 34.094C160.158 27.5128 151.067 19.0583 143.76 9.01072C136.187 -1.38721 130.866 -13.0575 127.928 -25.7032C124.985 -38.3257 124.607 -51.1765 126.8 -63.8391C128.926 -76.0767 133.326 -87.653 139.936 -98.2646C146.517 -108.858 154.971 -117.949 165.019 -125.255C175.417 -132.828 187.087 -138.15 199.733 -141.087C212.355 -144.03 225.206 -144.409 237.869 -142.216C250.106 -140.09 261.683 -135.69 272.294 -129.08C282.888 -122.499 291.978 -114.044 299.285 -103.997C306.858 -93.5988 312.179 -81.9285 315.117 -69.2828C318.06 -56.6604 318.438 -43.8095 316.245 -31.1469C314.119 -18.9093 309.719 -7.33305 303.11 3.27861C296.528 13.8719 288.074 22.9627 278.026 30.2694C267.628 37.8425 255.958 43.1635 243.312 46.1013C230.69 49.0441 217.839 49.4228 205.176 47.2298C203.86 46.9947 202.572 46.7414 201.265 46.4597ZM241.665 -141.251C228.016 -144.194 213.761 -144.093 199.776 -140.834C174.841 -135.028 153.67 -119.841 140.149 -98.121C126.622 -76.378 122.376 -50.6809 128.182 -25.7463C136.869 11.5291 166.329 38.6341 201.465 46.2099C214.857 49.0973 229.055 49.1553 243.269 45.8478C294.736 33.8479 326.863 -17.773 314.863 -69.2398C309.057 -94.1745 293.87 -115.345 272.151 -128.867C262.615 -134.805 252.327 -138.952 241.665 -141.251Z" fill="url(#paint4_linear_5824_17191)"/>
<path d="M202.39 41.1384C198.704 40.3436 195.044 39.3104 191.459 38.049C180.408 34.1527 170.329 28.244 161.491 20.4299C152.671 12.6441 145.54 3.36688 140.309 -7.13644C134.911 -17.9934 131.772 -29.7059 131.009 -41.9071C130.251 -54.1317 131.91 -66.1282 135.938 -77.5649C139.834 -88.6151 145.743 -98.6942 153.557 -107.532C161.343 -116.352 170.62 -123.483 181.123 -128.714C191.999 -134.085 203.683 -137.205 215.907 -137.963C228.132 -138.721 240.129 -137.062 251.565 -133.034C262.615 -129.137 272.695 -123.229 281.533 -115.415C290.353 -107.629 297.484 -98.3517 302.714 -87.8484C308.113 -76.9914 311.252 -65.2789 312.015 -53.0777C312.773 -40.8531 311.114 -28.8566 307.086 -17.4199C303.19 -6.36971 297.281 3.70941 289.467 12.5476C281.681 21.3674 272.404 28.4985 261.9 33.7293C251.043 39.1281 239.331 42.2671 227.13 43.0301C218.748 43.5178 210.462 42.8789 202.39 41.1384ZM131.275 -41.8985C134.364 7.86676 177.355 45.824 227.12 42.735C276.885 39.6459 314.843 -3.34445 311.754 -53.1097C308.664 -102.875 265.674 -140.832 215.909 -137.743C166.167 -134.649 128.186 -91.6637 131.275 -41.8985Z" fill="url(#paint5_linear_5824_17191)"/>
<path d="M203.494 36.1221C193.882 34.0496 184.767 30.3508 176.349 25.1176C166.919 19.2514 158.844 11.7482 152.326 2.79854C145.584 -6.46817 140.843 -16.8658 138.235 -28.0976C135.604 -39.3344 135.283 -50.7566 137.231 -62.056C139.117 -72.9537 143.049 -83.2637 148.915 -92.6927C154.781 -102.122 162.285 -110.197 171.234 -116.715C180.501 -123.458 190.899 -128.198 202.13 -130.806C213.362 -133.414 224.766 -133.763 236.06 -131.792C246.958 -129.906 257.268 -125.974 266.697 -120.108C276.126 -114.241 284.201 -106.738 290.719 -97.7887C297.462 -88.522 302.203 -78.1243 304.811 -66.8925C307.419 -55.6608 307.763 -44.2335 305.815 -32.9342C303.929 -22.0365 299.997 -11.7265 294.131 -2.29741C288.264 7.13166 280.761 15.2068 271.811 21.7248C262.545 28.4675 252.147 33.2084 240.915 35.8162C229.684 38.424 218.256 38.7679 206.957 36.82C205.809 36.5968 204.637 36.3686 203.494 36.1221ZM202.129 -130.685L202.15 -130.558C156.339 -119.878 127.78 -73.9332 138.442 -28.1507C143.619 -5.96389 157.109 12.8879 176.464 24.9227C195.818 36.9575 218.686 40.7405 240.872 35.5628C263.059 30.3851 281.911 16.8952 293.946 -2.45933C305.981 -21.8138 309.763 -44.681 304.586 -66.8678C293.905 -112.679 247.961 -141.238 202.179 -130.576L202.129 -130.685Z" fill="url(#paint6_linear_5824_17191)"/>
<path d="M204.394 31.3869C191.049 28.5095 178.625 22.2661 168.105 12.9663C151.944 -1.30985 142.324 -21.0119 140.979 -42.5187C139.634 -64.0255 146.77 -84.7781 161.046 -100.939C175.323 -117.1 195.025 -126.72 216.531 -128.065C238.038 -129.409 258.791 -122.274 274.952 -107.998C291.113 -93.7214 300.733 -74.0194 302.078 -52.5126C303.422 -31.0058 296.286 -10.2532 282.01 5.90796C267.734 22.0691 248.032 31.689 226.525 33.0336C218.977 33.5057 211.556 32.9313 204.394 31.3869ZM141.222 -42.515C143.958 1.75385 182.232 35.5445 226.501 32.8085C247.956 31.4772 267.606 21.8706 281.82 5.76936C296.035 -10.3319 303.155 -31.0145 301.824 -52.4696C299.088 -96.7385 260.815 -130.529 216.546 -127.793C172.249 -125.039 138.463 -86.789 141.222 -42.515Z" fill="url(#paint7_linear_5824_17191)"/>
<path d="M205.513 26.9882C197.044 25.1621 188.869 21.8612 181.313 17.1559C164.046 6.42562 152 -10.4057 147.381 -30.2014C142.762 -49.9971 146.139 -70.4127 156.874 -87.7036C167.605 -104.971 184.436 -117.017 204.232 -121.636C224.027 -126.255 244.443 -122.878 261.734 -112.143C279.001 -101.413 291.047 -84.5812 295.666 -64.7855C300.285 -44.9898 296.908 -24.5742 286.173 -7.28335C275.443 9.98413 258.611 22.0297 238.816 26.6487C227.659 29.2483 216.339 29.3223 205.513 26.9882ZM237.404 -121.71C226.811 -123.994 215.54 -124.032 204.308 -121.424C184.564 -116.818 167.789 -104.809 157.097 -87.6066C146.406 -70.4041 143.016 -50.0401 147.622 -30.2961C152.227 -10.5521 164.236 6.2225 181.439 16.9144C198.66 27.6346 219.005 30.9959 238.749 26.3902C258.493 21.7845 275.268 9.77554 285.96 -7.42699C296.68 -24.6478 300.041 -44.9935 295.436 -64.7375C288.56 -94.2242 265.214 -115.714 237.404 -121.71Z" fill="url(#paint8_linear_5824_17191)"/>
<path d="M206.261 22.73C194.386 20.1695 183.304 14.6062 173.953 6.33972C159.576 -6.35555 151.005 -23.9026 149.812 -43.0571C148.62 -62.2117 154.967 -80.6683 167.663 -95.0461C180.358 -109.424 197.905 -117.995 217.06 -119.187C236.214 -120.38 254.671 -114.032 269.049 -101.337C283.426 -88.6416 291.997 -71.0946 293.19 -51.94C294.382 -32.7855 288.035 -14.3289 275.339 0.048982C262.644 14.4268 245.097 22.9976 225.942 24.1902C219.261 24.6051 212.654 24.1083 206.261 22.73ZM236.592 -117.491C230.34 -118.839 223.789 -119.372 217.108 -118.957C198.028 -117.773 180.538 -109.239 167.876 -94.9025C155.214 -80.5663 148.905 -62.1747 150.084 -43.0718C151.268 -23.9922 159.802 -6.50195 174.139 6.15992C188.475 18.8218 206.866 25.1312 225.969 23.9519C245.049 22.7675 262.539 14.2333 275.201 -0.102885C287.863 -14.4391 294.172 -32.8307 292.993 -51.9336C290.936 -84.6298 267.132 -110.906 236.592 -117.491Z" fill="url(#paint9_linear_5824_17191)"/>
<path d="M207.279 18.8007C199.743 17.1759 192.465 14.2395 185.726 10.052C170.356 0.487616 159.616 -14.4751 155.508 -32.1098C151.4 -49.7445 154.415 -67.9186 163.956 -83.2939C173.497 -98.6693 188.483 -109.404 206.118 -113.512C223.753 -117.62 241.927 -114.605 257.302 -105.064C272.672 -95.4996 283.412 -80.5369 287.52 -62.9022C291.628 -45.2675 288.613 -27.0935 279.072 -11.7181C269.508 3.65222 254.545 14.3916 236.91 18.4999C226.989 20.8044 216.914 20.8783 207.279 18.8007ZM206.184 -113.253C169.914 -104.813 147.298 -68.4277 155.738 -32.1578C159.838 -14.5981 170.513 0.326119 185.841 9.85708C201.17 19.3881 219.274 22.3882 236.834 18.2881C254.394 14.1881 269.318 3.51362 278.849 -11.8151C288.38 -27.1438 291.38 -45.2479 287.28 -62.8075C283.18 -80.3672 272.505 -95.2915 257.177 -104.822C241.871 -114.348 223.744 -117.354 206.184 -113.253Z" fill="url(#paint10_linear_5824_17191)"/>
<path d="M207.948 15.0149C197.379 12.7361 187.511 7.77614 179.209 0.419437C166.411 -10.8853 158.766 -26.4991 157.729 -43.5449C156.669 -60.5956 162.312 -77.0311 173.617 -89.8288C184.922 -102.626 200.536 -110.271 217.581 -111.308C234.632 -112.368 251.068 -106.725 263.865 -95.4202C276.663 -84.1155 284.308 -68.5016 285.345 -51.4559C286.405 -34.4052 280.761 -17.9697 269.457 -5.172C258.152 7.62571 242.538 15.2705 225.492 16.3074C219.499 16.6998 213.617 16.2373 207.948 15.0149ZM157.926 -43.5513C160.107 -8.48455 190.401 18.2632 225.444 16.0773C242.42 15.0253 257.977 7.41712 269.249 -5.33896C280.52 -18.095 286.125 -34.4655 285.073 -51.4413C284.021 -68.417 276.413 -83.9741 263.657 -95.2454C250.901 -106.517 234.53 -112.122 217.531 -111.075C182.516 -108.907 155.768 -78.6129 157.926 -43.5513Z" fill="url(#paint11_linear_5824_17191)"/>
<path d="M208.824 11.5144C202.128 10.0707 195.637 7.4504 189.654 3.71888C175.963 -4.79986 166.43 -18.1107 162.761 -33.8196C159.11 -49.5001 161.773 -65.6993 170.287 -79.3673C178.805 -93.0587 192.116 -102.592 207.825 -106.261C223.534 -109.93 239.705 -107.249 253.373 -98.735C267.064 -90.2163 276.597 -76.9054 280.266 -61.1966C283.917 -45.5161 281.254 -29.3169 272.74 -15.6488C264.227 -1.98078 250.911 7.57552 235.202 11.2445C226.385 13.2987 217.433 13.3707 208.824 11.5144ZM207.846 -106.134L207.868 -106.007C175.605 -98.4853 155.464 -66.1073 162.986 -33.8443C168.422 -10.4787 186.902 6.51918 208.926 11.2679C217.325 13.0788 226.228 13.1184 235.126 11.0327C267.389 3.51078 287.53 -28.8672 280.008 -61.1302C272.486 -93.3933 240.108 -113.534 207.845 -106.012L207.846 -106.134Z" fill="url(#paint12_linear_5824_17191)"/>
<path d="M209.427 8.15462C200.024 6.12737 191.234 1.71716 183.832 -4.83494C172.43 -14.911 165.635 -28.8035 164.706 -43.9705C163.753 -59.1424 168.789 -73.78 178.865 -85.1824C188.941 -96.5848 202.834 -103.38 218.001 -104.309C233.173 -105.262 247.81 -100.226 259.213 -90.1497C270.615 -80.0736 277.41 -66.1811 278.339 -51.0141C279.269 -35.8472 274.256 -21.2045 264.18 -9.80215C254.104 1.60023 240.211 8.39537 225.044 9.32461C219.726 9.64292 214.489 9.24621 209.427 8.15462ZM233.545 -102.911C228.505 -103.997 223.292 -104.389 217.997 -104.066C202.877 -103.127 189.041 -96.368 179.027 -85.0255C169.012 -73.6831 163.991 -59.1154 164.931 -43.9952C165.87 -28.8749 172.628 -15.0391 183.971 -5.02478C195.313 4.98954 209.881 10.0105 225.001 9.07118C240.122 8.13187 253.957 1.37334 263.972 -9.9691C273.986 -21.3116 279.007 -35.8792 278.068 -50.9995C277.128 -66.1197 270.37 -79.9555 259.027 -89.9699C251.668 -96.4886 242.924 -100.889 233.545 -102.911Z" fill="url(#paint13_linear_5824_17191)"/>
<path d="M210.222 5.03101C204.25 3.74323 198.475 1.42387 193.137 -1.9001C180.953 -9.48343 172.451 -21.3511 169.21 -35.3075C165.969 -49.2638 168.343 -63.6698 175.903 -75.8588C183.486 -88.0428 195.354 -96.5441 209.31 -99.7852C223.272 -103.05 237.672 -100.653 249.861 -93.0927C262.045 -85.5094 270.547 -73.6417 273.788 -59.6854C277.029 -45.729 274.655 -31.3231 267.095 -19.1341C259.512 -6.95006 247.644 1.55125 233.683 4.81573C225.843 6.64108 217.875 6.68098 210.222 5.03101ZM232.749 -99.7855C225.143 -101.425 217.198 -101.381 209.382 -99.5501C195.472 -96.2989 183.661 -87.8342 176.116 -75.7152C168.571 -63.5961 166.213 -49.2602 169.435 -35.3322C174.278 -14.536 190.722 0.582232 210.319 4.80777C217.785 6.41749 225.715 6.44256 233.63 4.60897C247.54 1.35776 259.351 -7.10696 266.896 -19.226C274.44 -31.345 276.799 -45.681 273.576 -59.609C270.325 -73.5187 261.86 -85.3296 249.741 -92.8745C244.426 -96.1935 238.698 -98.5028 232.749 -99.7855Z" fill="url(#paint14_linear_5824_17191)"/>
<path d="M210.84 2.04292C189.213 -2.62026 172.372 -21.2179 170.939 -44.3551C170.093 -57.8684 174.585 -70.8897 183.538 -81.045C192.491 -91.2003 204.879 -97.2455 218.387 -98.0685C231.9 -98.9149 244.921 -94.4226 255.077 -85.47C265.232 -76.5173 271.277 -64.1294 272.1 -50.6211C273.827 -22.7328 252.541 1.3657 224.653 3.09228C219.902 3.3863 215.273 2.9987 210.84 2.04292ZM232.224 -96.7941C227.745 -97.7599 223.088 -98.1292 218.383 -97.8252C204.945 -96.9871 192.614 -90.9784 183.699 -80.8881C174.785 -70.7978 170.326 -57.8181 171.164 -44.3798C172.893 -16.6132 196.866 4.57227 224.633 2.84387C252.4 1.11549 273.562 -22.8632 271.852 -50.6014C271.014 -64.0397 265.005 -76.3709 254.891 -85.2902C248.331 -91.0994 240.553 -94.9983 232.224 -96.7941Z" fill="url(#paint15_linear_5824_17191)"/>
<path d="M211.466 -0.730508C206.146 -1.87744 201.023 -3.93426 196.265 -6.88911C185.416 -13.6473 177.85 -24.1902 174.942 -36.6342C168.955 -62.316 184.981 -88.0614 210.662 -94.0481C223.106 -96.9562 235.929 -94.8262 246.754 -88.0731C257.602 -81.3149 265.168 -70.7719 268.053 -58.333C274.04 -32.6513 258.014 -6.90579 232.333 -0.919071C225.366 0.704018 218.278 0.738368 211.466 -0.730508ZM210.689 -93.9448L210.71 -93.818C185.16 -87.8762 169.23 -62.2323 175.172 -36.6823C179.483 -18.1739 194.111 -4.71649 211.539 -0.95878C218.189 0.474883 225.238 0.505504 232.285 -1.14916C257.835 -7.09104 273.765 -32.7349 267.823 -58.2849C264.946 -70.6489 257.398 -81.1635 246.615 -87.8832C235.832 -94.603 223.074 -96.6945 210.687 -93.8231L210.689 -93.9448Z" fill="url(#paint16_linear_5824_17191)"/>
<path d="M212.014 -3.3974C192.766 -7.54748 177.758 -24.1142 176.484 -44.7024C174.95 -69.5217 193.884 -90.9777 218.703 -92.5115C243.523 -94.0453 264.979 -75.1117 266.512 -50.2924C268.046 -25.4732 249.113 -4.0171 224.293 -2.48334C220.086 -2.21863 215.957 -2.54726 212.014 -3.3974ZM176.733 -44.7221C178.268 -20.0245 199.594 -1.1678 224.292 -2.70338C248.99 -4.23897 267.823 -25.5701 266.311 -50.2627C264.775 -74.9602 243.444 -93.7937 218.751 -92.2814C194.03 -90.7509 175.197 -69.4197 176.733 -44.7221Z" fill="url(#paint17_linear_5824_17191)"/>
<path d="M212.6 -5.8839C196.992 -9.24923 183.915 -21.2978 180.062 -37.852C177.494 -48.9287 179.369 -60.3414 185.379 -69.9837C191.389 -79.6259 200.777 -86.3668 211.859 -88.9581C222.936 -91.5262 234.348 -89.6514 243.991 -83.6415C253.633 -77.6317 260.374 -68.2433 262.965 -57.1616C265.533 -46.0849 263.658 -34.6721 257.649 -25.0298C251.639 -15.3876 242.25 -8.64674 231.169 -6.05538C224.869 -4.58146 218.55 -4.60114 212.6 -5.8839ZM230.4 -88.8913C224.381 -90.1891 218.075 -90.1571 211.902 -88.7047C200.9 -86.1449 191.545 -79.4457 185.569 -69.8451C179.592 -60.2445 177.733 -48.9017 180.287 -37.8767C184.114 -21.4259 197.131 -9.43909 212.646 -6.09388C218.548 -4.82119 224.844 -4.80653 231.115 -6.26215C242.117 -8.82193 251.472 -15.5211 257.449 -25.1218C263.425 -34.7224 265.285 -46.0652 262.73 -57.0902C260.17 -68.0919 253.471 -77.4469 243.87 -83.4233C239.65 -86.0424 235.113 -87.8751 230.4 -88.8913Z" fill="url(#paint18_linear_5824_17191)"/>
<path d="M212.986 -8.24263C206.36 -9.67126 200.148 -12.793 194.918 -17.412C186.879 -24.5167 182.082 -34.316 181.414 -45.0319C180.746 -55.7478 184.29 -66.0683 191.394 -74.1072C198.499 -82.1462 208.298 -86.9428 219.014 -87.611C229.73 -88.2792 240.05 -84.7355 248.089 -77.6309C256.128 -70.5262 260.925 -60.7269 261.593 -50.011C262.957 -27.9141 246.095 -8.81906 223.993 -7.43187C220.254 -7.18824 216.555 -7.47298 212.986 -8.24263ZM229.989 -86.5386C226.443 -87.3032 222.768 -87.5829 219.034 -87.3626C208.393 -86.7027 198.65 -81.9426 191.579 -73.9453C184.508 -65.948 181.003 -55.6925 181.662 -45.0516C182.322 -34.4107 187.082 -24.6681 195.08 -17.5968C203.077 -10.5256 213.333 -7.02033 223.973 -7.68028C245.949 -9.04595 262.71 -28.0161 261.345 -49.9913C260.685 -60.6322 255.925 -70.3748 247.927 -77.4461C242.734 -82.0084 236.592 -85.115 229.989 -86.5386Z" fill="url(#paint19_linear_5824_17191)"/>
<defs>
<linearGradient id="paint0_linear_5824_17191" x1="249.015" y1="70.6227" x2="193.973" y2="-165.592" gradientUnits="userSpaceOnUse">
<stop/>
<stop offset="0.0334931" stop-color="#202020" stop-opacity="0.9442"/>
<stop offset="0.0939151" stop-color="#545454" stop-opacity="0.8436"/>
<stop offset="0.157" stop-color="#828282" stop-opacity="0.7386"/>
<stop offset="0.2216" stop-color="#A8A8A8" stop-opacity="0.631"/>
<stop offset="0.288" stop-color="#C8C8C8" stop-opacity="0.5205"/>
<stop offset="0.3568" stop-color="#E0E0E0" stop-opacity="0.406"/>
<stop offset="0.429" stop-color="#F1F1F1" stop-opacity="0.2857"/>
<stop offset="0.5069" stop-color="#FCFCFC" stop-opacity="0.1561"/>
<stop offset="0.6006" stop-color="white" stop-opacity="0"/>
</linearGradient>
<linearGradient id="paint1_linear_5824_17191" x1="335.687" y1="-54.5646" x2="107.3" y2="-40.4002" gradientUnits="userSpaceOnUse">
<stop/>
<stop offset="0.0334931" stop-color="#202020" stop-opacity="0.9442"/>
<stop offset="0.0939151" stop-color="#545454" stop-opacity="0.8436"/>
<stop offset="0.157" stop-color="#828282" stop-opacity="0.7386"/>
<stop offset="0.2216" stop-color="#A8A8A8" stop-opacity="0.631"/>
<stop offset="0.288" stop-color="#C8C8C8" stop-opacity="0.5205"/>
<stop offset="0.3568" stop-color="#E0E0E0" stop-opacity="0.406"/>
<stop offset="0.429" stop-color="#F1F1F1" stop-opacity="0.2857"/>
<stop offset="0.5069" stop-color="#FCFCFC" stop-opacity="0.1561"/>
<stop offset="0.6006" stop-color="white" stop-opacity="0"/>
</linearGradient>
<linearGradient id="paint2_linear_5824_17191" x1="246.01" y1="57.6147" x2="197.019" y2="-152.64" gradientUnits="userSpaceOnUse">
<stop/>
<stop offset="0.0334931" stop-color="#202020" stop-opacity="0.9442"/>
<stop offset="0.0939151" stop-color="#545454" stop-opacity="0.8436"/>
<stop offset="0.157" stop-color="#828282" stop-opacity="0.7386"/>
<stop offset="0.2216" stop-color="#A8A8A8" stop-opacity="0.631"/>
<stop offset="0.288" stop-color="#C8C8C8" stop-opacity="0.5205"/>
<stop offset="0.3568" stop-color="#E0E0E0" stop-opacity="0.406"/>
<stop offset="0.429" stop-color="#F1F1F1" stop-opacity="0.2857"/>
<stop offset="0.5069" stop-color="#FCFCFC" stop-opacity="0.1561"/>
<stop offset="0.6006" stop-color="white" stop-opacity="0"/>
</linearGradient>
<linearGradient id="paint3_linear_5824_17191" x1="323.179" y1="-53.8161" x2="119.887" y2="-41.2107" gradientUnits="userSpaceOnUse">
<stop/>
<stop offset="0.0334931" stop-color="#202020" stop-opacity="0.9442"/>
<stop offset="0.0939151" stop-color="#545454" stop-opacity="0.8436"/>
<stop offset="0.157" stop-color="#828282" stop-opacity="0.7386"/>
<stop offset="0.2216" stop-color="#A8A8A8" stop-opacity="0.631"/>
<stop offset="0.288" stop-color="#C8C8C8" stop-opacity="0.5205"/>
<stop offset="0.3568" stop-color="#E0E0E0" stop-opacity="0.406"/>
<stop offset="0.429" stop-color="#F1F1F1" stop-opacity="0.2857"/>
<stop offset="0.5069" stop-color="#FCFCFC" stop-opacity="0.1561"/>
<stop offset="0.6006" stop-color="white" stop-opacity="0"/>
</linearGradient>
<linearGradient id="paint4_linear_5824_17191" x1="243.288" y1="46.0957" x2="199.678" y2="-141.058" gradientUnits="userSpaceOnUse">
<stop/>
<stop offset="0.0334931" stop-color="#202020" stop-opacity="0.9442"/>
<stop offset="0.0939151" stop-color="#545454" stop-opacity="0.8436"/>
<stop offset="0.157" stop-color="#828282" stop-opacity="0.7386"/>
<stop offset="0.2216" stop-color="#A8A8A8" stop-opacity="0.631"/>
<stop offset="0.288" stop-color="#C8C8C8" stop-opacity="0.5205"/>
<stop offset="0.3568" stop-color="#E0E0E0" stop-opacity="0.406"/>
<stop offset="0.429" stop-color="#F1F1F1" stop-opacity="0.2857"/>
<stop offset="0.5069" stop-color="#FCFCFC" stop-opacity="0.1561"/>
<stop offset="0.6006" stop-color="white" stop-opacity="0"/>
</linearGradient>
<linearGradient id="paint5_linear_5824_17191" x1="312.012" y1="-53.0831" x2="131.059" y2="-41.8628" gradientUnits="userSpaceOnUse">
<stop/>
<stop offset="0.0334931" stop-color="#202020" stop-opacity="0.9442"/>
<stop offset="0.0939151" stop-color="#545454" stop-opacity="0.8436"/>
<stop offset="0.157" stop-color="#828282" stop-opacity="0.7386"/>
<stop offset="0.2216" stop-color="#A8A8A8" stop-opacity="0.631"/>
<stop offset="0.288" stop-color="#C8C8C8" stop-opacity="0.5205"/>
<stop offset="0.3568" stop-color="#E0E0E0" stop-opacity="0.406"/>
<stop offset="0.429" stop-color="#F1F1F1" stop-opacity="0.2857"/>
<stop offset="0.5069" stop-color="#FCFCFC" stop-opacity="0.1561"/>
<stop offset="0.6006" stop-color="white" stop-opacity="0"/>
</linearGradient>
<linearGradient id="paint6_linear_5824_17191" x1="240.897" y1="35.7764" x2="202.081" y2="-130.815" gradientUnits="userSpaceOnUse">
<stop/>
<stop offset="0.0334931" stop-color="#202020" stop-opacity="0.9442"/>
<stop offset="0.0939151" stop-color="#545454" stop-opacity="0.8436"/>
<stop offset="0.157" stop-color="#828282" stop-opacity="0.7386"/>
<stop offset="0.2216" stop-color="#A8A8A8" stop-opacity="0.631"/>
<stop offset="0.288" stop-color="#C8C8C8" stop-opacity="0.5205"/>
<stop offset="0.3568" stop-color="#E0E0E0" stop-opacity="0.406"/>
<stop offset="0.429" stop-color="#F1F1F1" stop-opacity="0.2857"/>
<stop offset="0.5069" stop-color="#FCFCFC" stop-opacity="0.1561"/>
<stop offset="0.6006" stop-color="white" stop-opacity="0"/>
</linearGradient>
<linearGradient id="paint7_linear_5824_17191" x1="302.027" y1="-52.5251" x2="140.95" y2="-42.5348" gradientUnits="userSpaceOnUse">
<stop/>
<stop offset="0.0334931" stop-color="#202020" stop-opacity="0.9442"/>
<stop offset="0.0939151" stop-color="#545454" stop-opacity="0.8436"/>
<stop offset="0.157" stop-color="#828282" stop-opacity="0.7386"/>
<stop offset="0.2216" stop-color="#A8A8A8" stop-opacity="0.631"/>
<stop offset="0.288" stop-color="#C8C8C8" stop-opacity="0.5205"/>
<stop offset="0.3568" stop-color="#E0E0E0" stop-opacity="0.406"/>
<stop offset="0.429" stop-color="#F1F1F1" stop-opacity="0.2857"/>
<stop offset="0.5069" stop-color="#FCFCFC" stop-opacity="0.1561"/>
<stop offset="0.6006" stop-color="white" stop-opacity="0"/>
</linearGradient>
<linearGradient id="paint8_linear_5824_17191" x1="238.806" y1="26.6592" x2="204.252" y2="-121.63" gradientUnits="userSpaceOnUse">
<stop/>
<stop offset="0.0334931" stop-color="#202020" stop-opacity="0.9442"/>
<stop offset="0.0939151" stop-color="#545454" stop-opacity="0.8436"/>
<stop offset="0.157" stop-color="#828282" stop-opacity="0.7386"/>
<stop offset="0.2216" stop-color="#A8A8A8" stop-opacity="0.631"/>
<stop offset="0.288" stop-color="#C8C8C8" stop-opacity="0.5205"/>
<stop offset="0.3568" stop-color="#E0E0E0" stop-opacity="0.406"/>
<stop offset="0.429" stop-color="#F1F1F1" stop-opacity="0.2857"/>
<stop offset="0.5069" stop-color="#FCFCFC" stop-opacity="0.1561"/>
<stop offset="0.6006" stop-color="white" stop-opacity="0"/>
</linearGradient>
<linearGradient id="paint9_linear_5824_17191" x1="293.233" y1="-51.9536" x2="149.85" y2="-43.0638" gradientUnits="userSpaceOnUse">
<stop/>
<stop offset="0.0334931" stop-color="#202020" stop-opacity="0.9442"/>
<stop offset="0.0939151" stop-color="#545454" stop-opacity="0.8436"/>
<stop offset="0.157" stop-color="#828282" stop-opacity="0.7386"/>
<stop offset="0.2216" stop-color="#A8A8A8" stop-opacity="0.631"/>
<stop offset="0.288" stop-color="#C8C8C8" stop-opacity="0.5205"/>
<stop offset="0.3568" stop-color="#E0E0E0" stop-opacity="0.406"/>
<stop offset="0.429" stop-color="#F1F1F1" stop-opacity="0.2857"/>
<stop offset="0.5069" stop-color="#FCFCFC" stop-opacity="0.1561"/>
<stop offset="0.6006" stop-color="white" stop-opacity="0"/>
</linearGradient>
<linearGradient id="paint10_linear_5824_17191" x1="236.89" y1="18.5165" x2="206.131" y2="-113.487" gradientUnits="userSpaceOnUse">
<stop/>
<stop offset="0.0334931" stop-color="#202020" stop-opacity="0.9442"/>
<stop offset="0.0939151" stop-color="#545454" stop-opacity="0.8436"/>
<stop offset="0.157" stop-color="#828282" stop-opacity="0.7386"/>
<stop offset="0.2216" stop-color="#A8A8A8" stop-opacity="0.631"/>
<stop offset="0.288" stop-color="#C8C8C8" stop-opacity="0.5205"/>
<stop offset="0.3568" stop-color="#E0E0E0" stop-opacity="0.406"/>
<stop offset="0.429" stop-color="#F1F1F1" stop-opacity="0.2857"/>
<stop offset="0.5069" stop-color="#FCFCFC" stop-opacity="0.1561"/>
<stop offset="0.6006" stop-color="white" stop-opacity="0"/>
</linearGradient>
<linearGradient id="paint11_linear_5824_17191" x1="285.359" y1="-51.4518" x2="157.724" y2="-43.5385" gradientUnits="userSpaceOnUse">
<stop/>
<stop offset="0.0334931" stop-color="#202020" stop-opacity="0.9442"/>
<stop offset="0.0939151" stop-color="#545454" stop-opacity="0.8436"/>
<stop offset="0.157" stop-color="#828282" stop-opacity="0.7386"/>
<stop offset="0.2216" stop-color="#A8A8A8" stop-opacity="0.631"/>
<stop offset="0.288" stop-color="#C8C8C8" stop-opacity="0.5205"/>
<stop offset="0.3568" stop-color="#E0E0E0" stop-opacity="0.406"/>
<stop offset="0.429" stop-color="#F1F1F1" stop-opacity="0.2857"/>
<stop offset="0.5069" stop-color="#FCFCFC" stop-opacity="0.1561"/>
<stop offset="0.6006" stop-color="white" stop-opacity="0"/>
</linearGradient>
<linearGradient id="paint12_linear_5824_17191" x1="235.204" y1="11.2551" x2="207.823" y2="-106.253" gradientUnits="userSpaceOnUse">
<stop/>
<stop offset="0.0334931" stop-color="#202020" stop-opacity="0.9442"/>
<stop offset="0.0939151" stop-color="#545454" stop-opacity="0.8436"/>
<stop offset="0.157" stop-color="#828282" stop-opacity="0.7386"/>
<stop offset="0.2216" stop-color="#A8A8A8" stop-opacity="0.631"/>
<stop offset="0.288" stop-color="#C8C8C8" stop-opacity="0.5205"/>
<stop offset="0.3568" stop-color="#E0E0E0" stop-opacity="0.406"/>
<stop offset="0.429" stop-color="#F1F1F1" stop-opacity="0.2857"/>
<stop offset="0.5069" stop-color="#FCFCFC" stop-opacity="0.1561"/>
<stop offset="0.6006" stop-color="white" stop-opacity="0"/>
</linearGradient>
<linearGradient id="paint13_linear_5824_17191" x1="278.317" y1="-51.0148" x2="164.695" y2="-43.9682" gradientUnits="userSpaceOnUse">
<stop/>
<stop offset="0.0334931" stop-color="#202020" stop-opacity="0.9442"/>
<stop offset="0.0939151" stop-color="#545454" stop-opacity="0.8436"/>
<stop offset="0.157" stop-color="#828282" stop-opacity="0.7386"/>
<stop offset="0.2216" stop-color="#A8A8A8" stop-opacity="0.631"/>
<stop offset="0.288" stop-color="#C8C8C8" stop-opacity="0.5205"/>
<stop offset="0.3568" stop-color="#E0E0E0" stop-opacity="0.406"/>
<stop offset="0.429" stop-color="#F1F1F1" stop-opacity="0.2857"/>
<stop offset="0.5069" stop-color="#FCFCFC" stop-opacity="0.1561"/>
<stop offset="0.6006" stop-color="white" stop-opacity="0"/>
</linearGradient>
<linearGradient id="paint14_linear_5824_17191" x1="233.695" y1="4.80962" x2="209.32" y2="-99.798" gradientUnits="userSpaceOnUse">
<stop/>
<stop offset="0.0334931" stop-color="#202020" stop-opacity="0.9442"/>
<stop offset="0.0939151" stop-color="#545454" stop-opacity="0.8436"/>
<stop offset="0.157" stop-color="#828282" stop-opacity="0.7386"/>
<stop offset="0.2216" stop-color="#A8A8A8" stop-opacity="0.631"/>
<stop offset="0.288" stop-color="#C8C8C8" stop-opacity="0.5205"/>
<stop offset="0.3568" stop-color="#E0E0E0" stop-opacity="0.406"/>
<stop offset="0.429" stop-color="#F1F1F1" stop-opacity="0.2857"/>
<stop offset="0.5069" stop-color="#FCFCFC" stop-opacity="0.1561"/>
<stop offset="0.6006" stop-color="white" stop-opacity="0"/>
</linearGradient>
<linearGradient id="paint15_linear_5824_17191" x1="272.06" y1="-50.6541" x2="170.909" y2="-44.3799" gradientUnits="userSpaceOnUse">
<stop/>
<stop offset="0.0334931" stop-color="#202020" stop-opacity="0.9442"/>
<stop offset="0.0939151" stop-color="#545454" stop-opacity="0.8436"/>
<stop offset="0.157" stop-color="#828282" stop-opacity="0.7386"/>
<stop offset="0.2216" stop-color="#A8A8A8" stop-opacity="0.631"/>
<stop offset="0.288" stop-color="#C8C8C8" stop-opacity="0.5205"/>
<stop offset="0.3568" stop-color="#E0E0E0" stop-opacity="0.406"/>
<stop offset="0.429" stop-color="#F1F1F1" stop-opacity="0.2857"/>
<stop offset="0.5069" stop-color="#FCFCFC" stop-opacity="0.1561"/>
<stop offset="0.6006" stop-color="white" stop-opacity="0"/>
</linearGradient>
<linearGradient id="paint16_linear_5824_17191" x1="232.38" y1="-0.955711" x2="210.682" y2="-94.0806" gradientUnits="userSpaceOnUse">
<stop/>
<stop offset="0.0334931" stop-color="#202020" stop-opacity="0.9442"/>
<stop offset="0.0939151" stop-color="#545454" stop-opacity="0.8436"/>
<stop offset="0.157" stop-color="#828282" stop-opacity="0.7386"/>
<stop offset="0.2216" stop-color="#A8A8A8" stop-opacity="0.631"/>
<stop offset="0.288" stop-color="#C8C8C8" stop-opacity="0.5205"/>
<stop offset="0.3568" stop-color="#E0E0E0" stop-opacity="0.406"/>
<stop offset="0.429" stop-color="#F1F1F1" stop-opacity="0.2857"/>
<stop offset="0.5069" stop-color="#FCFCFC" stop-opacity="0.1561"/>
<stop offset="0.6006" stop-color="white" stop-opacity="0"/>
</linearGradient>
<linearGradient id="paint17_linear_5824_17191" x1="266.567" y1="-50.2872" x2="176.518" y2="-44.7049" gradientUnits="userSpaceOnUse">
<stop/>
<stop offset="0.0334931" stop-color="#202020" stop-opacity="0.9442"/>
<stop offset="0.0939151" stop-color="#545454" stop-opacity="0.8436"/>
<stop offset="0.157" stop-color="#828282" stop-opacity="0.7386"/>
<stop offset="0.2216" stop-color="#A8A8A8" stop-opacity="0.631"/>
<stop offset="0.288" stop-color="#C8C8C8" stop-opacity="0.5205"/>
<stop offset="0.3568" stop-color="#E0E0E0" stop-opacity="0.406"/>
<stop offset="0.429" stop-color="#F1F1F1" stop-opacity="0.2857"/>
<stop offset="0.5069" stop-color="#FCFCFC" stop-opacity="0.1561"/>
<stop offset="0.6006" stop-color="white" stop-opacity="0"/>
</linearGradient>
<linearGradient id="paint18_linear_5824_17191" x1="231.196" y1="-6.04907" x2="211.878" y2="-88.9546" gradientUnits="userSpaceOnUse">
<stop/>
<stop offset="0.0334931" stop-color="#202020" stop-opacity="0.9442"/>
<stop offset="0.0939151" stop-color="#545454" stop-opacity="0.8436"/>
<stop offset="0.157" stop-color="#828282" stop-opacity="0.7386"/>
<stop offset="0.2216" stop-color="#A8A8A8" stop-opacity="0.631"/>
<stop offset="0.288" stop-color="#C8C8C8" stop-opacity="0.5205"/>
<stop offset="0.3568" stop-color="#E0E0E0" stop-opacity="0.406"/>
<stop offset="0.429" stop-color="#F1F1F1" stop-opacity="0.2857"/>
<stop offset="0.5069" stop-color="#FCFCFC" stop-opacity="0.1561"/>
<stop offset="0.6006" stop-color="white" stop-opacity="0"/>
</linearGradient>
<linearGradient id="paint19_linear_5824_17191" x1="261.588" y1="-49.9611" x2="181.42" y2="-44.9889" gradientUnits="userSpaceOnUse">
<stop/>
<stop offset="0.0334931" stop-color="#202020" stop-opacity="0.9442"/>
<stop offset="0.0939151" stop-color="#545454" stop-opacity="0.8436"/>
<stop offset="0.157" stop-color="#828282" stop-opacity="0.7386"/>
<stop offset="0.2216" stop-color="#A8A8A8" stop-opacity="0.631"/>
<stop offset="0.288" stop-color="#C8C8C8" stop-opacity="0.5205"/>
<stop offset="0.3568" stop-color="#E0E0E0" stop-opacity="0.406"/>
<stop offset="0.429" stop-color="#F1F1F1" stop-opacity="0.2857"/>
<stop offset="0.5069" stop-color="#FCFCFC" stop-opacity="0.1561"/>
<stop offset="0.6006" stop-color="white" stop-opacity="0"/>
</linearGradient>
</defs>
</svg>
