<svg width="18" height="18" viewBox="0 0 18 18" fill="#fff"
    xmlns="http://www.w3.org/2000/svg">
    <path fill-rule="evenodd" clip-rule="evenodd" d="M9 0C9.29837 0 9.58452 0.118526 9.7955 0.329505C10.0065 0.540483 10.125 0.826631 10.125 1.125V2.25C10.125 2.54837 10.0065 2.83452 9.7955 3.0455C9.58452 3.25647 9.29837 3.375 9 3.375C8.70163 3.375 8.41548 3.25647 8.2045 3.0455C7.99353 2.83452 7.875 2.54837 7.875 2.25V1.125C7.875 0.826631 7.99353 0.540483 8.2045 0.329505C8.41548 0.118526 8.70163 0 9 0ZM13.5 9C13.5 10.1935 13.0259 11.3381 12.182 12.182C11.3381 13.0259 10.1935 13.5 9 13.5C7.80653 13.5 6.66193 13.0259 5.81802 12.182C4.97411 11.3381 4.5 10.1935 4.5 9C4.5 7.80653 4.97411 6.66193 5.81802 5.81802C6.66193 4.97411 7.80653 4.5 9 4.5C10.1935 4.5 11.3381 4.97411 12.182 5.81802C13.0259 6.66193 13.5 7.80653 13.5 9ZM12.978 14.5687L13.7734 15.3641C13.9856 15.5691 14.2697 15.6824 14.5647 15.6799C14.8597 15.6773 15.1418 15.559 15.3504 15.3504C15.559 15.1418 15.6773 14.8597 15.6799 14.5647C15.6824 14.2697 15.5691 13.9856 15.3641 13.7734L14.5687 12.978C14.3566 12.7731 14.0724 12.6597 13.7774 12.6622C13.4825 12.6648 13.2003 12.7831 12.9917 12.9917C12.7831 13.2003 12.6648 13.4825 12.6622 13.7774C12.6597 14.0724 12.7731 14.3566 12.978 14.5687ZM15.363 2.63587C15.5739 2.84684 15.6924 3.13294 15.6924 3.43125C15.6924 3.72956 15.5739 4.01566 15.363 4.22662L14.5687 5.022C14.465 5.12945 14.3408 5.21515 14.2036 5.27411C14.0663 5.33307 13.9187 5.36411 13.7693 5.36541C13.6199 5.3667 13.4718 5.33824 13.3336 5.28167C13.1953 5.22511 13.0697 5.14157 12.9641 5.03594C12.8584 4.93032 12.7749 4.80471 12.7183 4.66645C12.6618 4.52819 12.6333 4.38005 12.6346 4.23067C12.6359 4.0813 12.6669 3.93367 12.7259 3.79642C12.7848 3.65917 12.8706 3.53503 12.978 3.43125L13.7734 2.63587C13.9843 2.42497 14.2704 2.30649 14.5687 2.30649C14.8671 2.30649 15.1532 2.42497 15.3641 2.63587H15.363ZM16.875 10.125C17.1734 10.125 17.4595 10.0065 17.6705 9.7955C17.8815 9.58452 18 9.29837 18 9C18 8.70163 17.8815 8.41548 17.6705 8.2045C17.4595 7.99353 17.1734 7.875 16.875 7.875H15.75C15.4516 7.875 15.1655 7.99353 14.9545 8.2045C14.7435 8.41548 14.625 8.70163 14.625 9C14.625 9.29837 14.7435 9.58452 14.9545 9.7955C15.1655 10.0065 15.4516 10.125 15.75 10.125H16.875ZM9 14.625C9.29837 14.625 9.58452 14.7435 9.7955 14.9545C10.0065 15.1655 10.125 15.4516 10.125 15.75V16.875C10.125 17.1734 10.0065 17.4595 9.7955 17.6705C9.58452 17.8815 9.29837 18 9 18C8.70163 18 8.41548 17.8815 8.2045 17.6705C7.99353 17.4595 7.875 17.1734 7.875 16.875V15.75C7.875 15.4516 7.99353 15.1655 8.2045 14.9545C8.41548 14.7435 8.70163 14.625 9 14.625ZM3.43125 5.022C3.5357 5.12652 3.65972 5.20945 3.79621 5.26605C3.93271 5.32264 4.07902 5.3518 4.22679 5.35185C4.37456 5.35191 4.52089 5.32285 4.65743 5.26635C4.79397 5.20985 4.91804 5.12701 5.02256 5.02256C5.12709 4.91811 5.21001 4.7941 5.26661 4.6576C5.32321 4.5211 5.35236 4.37479 5.35242 4.22702C5.35247 4.07926 5.32341 3.93293 5.26691 3.79639C5.21042 3.65985 5.12758 3.53577 5.02313 3.43125L4.22662 2.63587C4.01445 2.43095 3.73027 2.31755 3.4353 2.32012C3.14033 2.32268 2.85816 2.44099 2.64958 2.64958C2.44099 2.85816 2.32268 3.14033 2.32012 3.4353C2.31755 3.73027 2.43095 4.01445 2.63587 4.22662L3.43125 5.022ZM5.022 14.5687L4.22662 15.3641C4.01445 15.5691 3.73027 15.6824 3.4353 15.6799C3.14033 15.6773 2.85816 15.559 2.64958 15.3504C2.44099 15.1418 2.32268 14.8597 2.32012 14.5647C2.31755 14.2697 2.43095 13.9856 2.63587 13.7734L3.43125 12.978C3.64343 12.7731 3.92761 12.6597 4.22258 12.6622C4.51755 12.6648 4.79971 12.7831 5.0083 12.9917C5.21688 13.2003 5.3352 13.4825 5.33776 13.7774C5.34032 14.0724 5.22693 14.3566 5.022 14.5687ZM2.25 10.125C2.54837 10.125 2.83452 10.0065 3.0455 9.7955C3.25647 9.58452 3.375 9.29837 3.375 9C3.375 8.70163 3.25647 8.41548 3.0455 8.2045C2.83452 7.99353 2.54837 7.875 2.25 7.875H1.125C0.826631 7.875 0.540483 7.99353 0.329505 8.2045C0.118526 8.41548 0 8.70163 0 9C0 9.29837 0.118526 9.58452 0.329505 9.7955C0.540483 10.0065 0.826631 10.125 1.125 10.125H2.25Z" fill="#fff"/>
</svg>
