<svg width="14" height="14" viewBox="0 0 14 14" fill="#cccccc"
    xmlns="http://www.w3.org/2000/svg">
    <path d="M9.96815 8.57532C7.39229 8.25691 5.19443 6.47801 4.22988 4.06849C3.80205 3.01616 3.64251 1.87399 3.7656 0.7447C3.77148 0.686357 3.7607 0.627542 3.73453 0.57507C3.70835 0.522598 3.66784 0.478615 3.6177 0.448216C3.56756 0.417818 3.50983 0.402248 3.4512 0.40331C3.39257 0.404372 3.33544 0.422023 3.28643 0.454218C1.15932 1.82098 -0.196882 4.28201 0.024083 7.04532C0.298428 10.474 3.10208 13.287 6.53015 13.5706C10.0346 13.8611 13.061 11.6167 13.9846 8.47291C14.0579 8.22339 13.8146 7.99249 13.5744 8.0918C12.4348 8.56372 11.1918 8.73038 9.96815 8.57532Z" fill="#cccccc"/>
</svg>
